<?xml version="1.0" encoding="UTF-8" standalone="no"?>
<svg
   width="456"
   height="456"
   viewBox="0 0 456 456"
   version="1.1"
   xml:space="preserve"
   style="fill-rule:evenodd;clip-rule:evenodd;stroke-linejoin:round;stroke-miterlimit:2;"
   id="svg4"
   sodipodi:docname="appiconfg.svg"
   inkscape:version="1.3 (0e150ed6c4, 2023-07-21)"
   xmlns:inkscape="http://www.inkscape.org/namespaces/inkscape"
   xmlns:sodipodi="http://sodipodi.sourceforge.net/DTD/sodipodi-0.dtd"
   xmlns="http://www.w3.org/2000/svg"
   xmlns:svg="http://www.w3.org/2000/svg"><defs
   id="defs4" /><sodipodi:namedview
   id="namedview4"
   pagecolor="#747474"
   bordercolor="#000000"
   borderopacity="0.25"
   inkscape:showpageshadow="2"
   inkscape:pageopacity="0.0"
   inkscape:pagecheckerboard="true"
   inkscape:deskcolor="#d1d1d1"
   inkscape:zoom="2.0667855"
   inkscape:cx="163.78091"
   inkscape:cy="236.11546"
   inkscape:window-width="1792"
   inkscape:window-height="1050"
   inkscape:window-x="-6"
   inkscape:window-y="-6"
   inkscape:window-maximized="1"
   inkscape:current-layer="svg4" />&#10;    &#10;    <path
   d="m 149.73199,216.19865 c 0,0 -23.66591,58.1328 -33.259,77.30495 -1.60416,3.20597 -4.0181,4.26043 -4.74932,4.50722 0,0 -16.97553,1.83701 -19.900042,-1.77196 -1.047166,-3.97201 -3.426673,-39.32077 -5.36133,-68.86358 -1.399164,-21.36566 -3.070193,-39.69462 -1.424978,-40.922 1.634341,-2.09196 5.719938,-2.51515 9.727114,-2.58476 3.621009,-0.0629 7.177986,0.0488 8.804386,1.52732 1.75872,0.39954 2.51445,17.23567 3.30202,36.30828 0.61944,15.00097 1.44617,30.59077 1.66349,41.00254 0.15258,7.31046 0.0328,10.32681 -0.21611,12.13129 1.55559,-7.03127 35.57279,-86.82623 37.75062,-87.88403 1.26747,-2.0952 4.45558,-2.85005 7.74847,-2.79871 4.62833,0.0722 5.97912,-0.5607 9.46365,1.5549 2.73784,1.55559 6.76692,83.92125 7.01582,89.3347 1.62843,-7.85897 12.6836,-34.93059 22.12362,-57.37599 7.15262,-17.0067 13.00698,-31.49002 15.2601,-32.18741 1.92826,-1.35693 5.83441,-1.44181 9.97234,-1.49506 4.3008,-0.0553 6.55132,1.2123 7.63844,2.59108 0.86696,3.72475 -5.60649,17.04592 -13.08462,33.99589 -7.01327,15.89631 -14.79026,35.03677 -21.73844,50.90921 -5.87252,13.41519 -10.45318,24.64559 -12.40402,25.80164 -2.42322,0.9169 -6.54557,0.99881 -10.05775,1.0721 -3.16157,0.066 -5.67528,0.2076 -8.65457,-0.47892 -2.07823,-0.47889 -3.40184,-1.72919 -3.74185,-2.71831 -2.3645,-9.27132 -5.87804,-78.96039 -5.87804,-78.96039 z"
   style="fill:#ffffff;fill-opacity:1;fill-rule:nonzero;stroke-width:0.838376"
   id="path2"
   sodipodi:nodetypes="csccscscssccsccscscsscsscc" /><path
   d="m 227.26073,295.31484 c 0,-5.05208 7.13601,-45.4291 13.13515,-78.17009 2.84854,-15.54622 4.61468,-28.24362 6.40662,-30.36638 2.47963,-2.2482 6.13739,-2.15928 9.48358,-2.14905 5.32031,0.0163 10.45719,0.41178 10.45719,0.41178 -7.81375,37.30798 -17.96512,107.60996 -20.4406,111.49834 -3.68203,2.3976 -9.74809,2.5772 -15.26791,1.4038 -2.04631,-0.435 -3.47296,-1.67889 -3.77403,-2.6284 z"
   style="clip-rule:evenodd;fill:#ffffff;fill-opacity:1;fill-rule:nonzero;stroke-width:0.838376;stroke-linejoin:round;stroke-miterlimit:2"
   id="path2-3"
   sodipodi:nodetypes="cscsccsc" /><path
   d="M 217.67818,148.35674 C 282.46545,30.618336 338.548,92.911517 338.548,92.911517 c 0,0 31.12447,25.173443 25.2064,113.321503 0,0 -6.86171,60.04834 -38.00943,108.95027 0,0 -43.68645,74.83026 -98.19497,45.86287 41.73796,7.16398 76.07034,-40.51726 76.07034,-40.51726 72.26272,-122.41056 22.43551,-193.39177 22.43551,-193.39177 0,0 -38.91824,-67.862885 -108.37767,21.21961 z"
   style="clip-rule:evenodd;fill:#ffffff;fill-opacity:1;fill-rule:nonzero;stroke-width:0.838376;stroke-linejoin:round;stroke-miterlimit:2"
   id="path2-3-8"
   sodipodi:nodetypes="cccccccc" /><path
   d="m 264.85612,184.99857 c 17.39237,-0.96483 30.09896,-0.99065 38.35916,2.15575 12.52945,4.77262 17.24481,15.918 15.78676,31.74274 -1.0107,10.96957 -9.80688,30.99983 -26.80557,37.29672 -9.95287,3.68689 -22.41659,2.99153 -38.57501,2.88991 l 2.47613,-15.9417 c 12.64552,0.23817 23.73,0.95432 30.43919,-3.08552 8.41923,-5.06952 11.0549,-15.37941 11.51792,-21.91707 0.41187,-5.81539 -1.13889,-13.75148 -7.92788,-16.50031 -4.86721,-1.9707 -16.15325,-1.02021 -26.41167,-0.90874 z"
   style="clip-rule:evenodd;fill:#ffffff;fill-opacity:1;fill-rule:nonzero;stroke-width:0.838376;stroke-linejoin:round;stroke-miterlimit:2"
   id="path2-3-3"
   sodipodi:nodetypes="csssccssscc" />&#10;    &#10;    &#10;</svg>
